<mxfile host="app.diagrams.net" modified="2023-05-24T10:50:59.453Z" agent="Mozilla/5.0 (Windows NT 10.0; Win64; x64; rv:80.0) Gecko/20100101 Firefox/80.0" etag="-51rdaBCNGRvBPMB2TiL" version="21.3.2" type="device">
  <diagram name="Сторінка-1" id="sXQb-hbnZPxwT5PKqxP0">
    <mxGraphModel dx="1736" dy="2130" grid="1" gridSize="10" guides="1" tooltips="1" connect="1" arrows="1" fold="1" page="1" pageScale="1" pageWidth="827" pageHeight="1169" math="0" shadow="0">
      <root>
        <mxCell id="0" />
        <mxCell id="1" parent="0" />
        <mxCell id="N5dowPaXgB27e-xXzKCq-3" value="Note" style="swimlane;fontStyle=1;align=center;verticalAlign=top;childLayout=stackLayout;horizontal=1;startSize=26;horizontalStack=0;resizeParent=1;resizeParentMax=0;resizeLast=0;collapsible=1;marginBottom=0;whiteSpace=wrap;html=1;" parent="1" vertex="1">
          <mxGeometry x="319" y="360" width="200" height="172" as="geometry">
            <mxRectangle x="308" y="110" width="70" height="30" as="alternateBounds" />
          </mxGeometry>
        </mxCell>
        <object label="&lt;div&gt;+ name: str&lt;/div&gt;" name="string" id="N5dowPaXgB27e-xXzKCq-4">
          <mxCell style="text;strokeColor=none;fillColor=none;align=left;verticalAlign=top;spacingLeft=4;spacingRight=4;overflow=hidden;rotatable=0;points=[[0,0.5],[1,0.5]];portConstraint=eastwest;whiteSpace=wrap;html=1;" parent="N5dowPaXgB27e-xXzKCq-3" vertex="1">
            <mxGeometry y="26" width="200" height="26" as="geometry" />
          </mxCell>
        </object>
        <object label="&lt;div&gt;+ value: str&lt;/div&gt;" name="string" id="N5dowPaXgB27e-xXzKCq-10">
          <mxCell style="text;strokeColor=none;fillColor=none;align=left;verticalAlign=top;spacingLeft=4;spacingRight=4;overflow=hidden;rotatable=0;points=[[0,0.5],[1,0.5]];portConstraint=eastwest;whiteSpace=wrap;html=1;" parent="N5dowPaXgB27e-xXzKCq-3" vertex="1">
            <mxGeometry y="52" width="200" height="26" as="geometry" />
          </mxCell>
        </object>
        <object label="&lt;div&gt;+ tags: list[str]&lt;/div&gt;" name="string" id="N5dowPaXgB27e-xXzKCq-9">
          <mxCell style="text;strokeColor=none;fillColor=none;align=left;verticalAlign=top;spacingLeft=4;spacingRight=4;overflow=hidden;rotatable=0;points=[[0,0.5],[1,0.5]];portConstraint=eastwest;whiteSpace=wrap;html=1;" parent="N5dowPaXgB27e-xXzKCq-3" vertex="1">
            <mxGeometry y="78" width="200" height="26" as="geometry" />
          </mxCell>
        </object>
        <mxCell id="N5dowPaXgB27e-xXzKCq-5" value="" style="line;strokeWidth=1;fillColor=none;align=left;verticalAlign=middle;spacingTop=-1;spacingLeft=3;spacingRight=3;rotatable=0;labelPosition=right;points=[];portConstraint=eastwest;strokeColor=inherit;" parent="N5dowPaXgB27e-xXzKCq-3" vertex="1">
          <mxGeometry y="104" width="200" height="8" as="geometry" />
        </mxCell>
        <mxCell id="N5dowPaXgB27e-xXzKCq-8" value="+ add_tag(*tags)" style="text;strokeColor=none;fillColor=none;align=left;verticalAlign=top;spacingLeft=4;spacingRight=4;overflow=hidden;rotatable=0;points=[[0,0.5],[1,0.5]];portConstraint=eastwest;whiteSpace=wrap;html=1;" parent="N5dowPaXgB27e-xXzKCq-3" vertex="1">
          <mxGeometry y="112" width="200" height="30" as="geometry" />
        </mxCell>
        <mxCell id="N5dowPaXgB27e-xXzKCq-11" value="+ __str__(): str" style="text;strokeColor=none;fillColor=none;align=left;verticalAlign=top;spacingLeft=4;spacingRight=4;overflow=hidden;rotatable=0;points=[[0,0.5],[1,0.5]];portConstraint=eastwest;whiteSpace=wrap;html=1;" parent="N5dowPaXgB27e-xXzKCq-3" vertex="1">
          <mxGeometry y="142" width="200" height="30" as="geometry" />
        </mxCell>
        <mxCell id="N5dowPaXgB27e-xXzKCq-12" value="Notebook" style="swimlane;fontStyle=1;align=center;verticalAlign=top;childLayout=stackLayout;horizontal=1;startSize=26;horizontalStack=0;resizeParent=1;resizeParentMax=0;resizeLast=0;collapsible=1;marginBottom=0;whiteSpace=wrap;html=1;" parent="1" vertex="1">
          <mxGeometry x="239" y="-80" width="360" height="360" as="geometry">
            <mxRectangle x="308" y="110" width="70" height="30" as="alternateBounds" />
          </mxGeometry>
        </mxCell>
        <object label="&lt;div&gt;+ data: dict&lt;br&gt;&lt;/div&gt;" name="string" id="N5dowPaXgB27e-xXzKCq-13">
          <mxCell style="text;strokeColor=none;fillColor=none;align=left;verticalAlign=top;spacingLeft=4;spacingRight=4;overflow=hidden;rotatable=0;points=[[0,0.5],[1,0.5]];portConstraint=eastwest;whiteSpace=wrap;html=1;" parent="N5dowPaXgB27e-xXzKCq-12" vertex="1">
            <mxGeometry y="26" width="360" height="26" as="geometry" />
          </mxCell>
        </object>
        <mxCell id="N5dowPaXgB27e-xXzKCq-16" value="" style="line;strokeWidth=1;fillColor=none;align=left;verticalAlign=middle;spacingTop=-1;spacingLeft=3;spacingRight=3;rotatable=0;labelPosition=right;points=[];portConstraint=eastwest;strokeColor=inherit;" parent="N5dowPaXgB27e-xXzKCq-12" vertex="1">
          <mxGeometry y="52" width="360" height="8" as="geometry" />
        </mxCell>
        <mxCell id="N5dowPaXgB27e-xXzKCq-18" value="+ add_note(*data: str): str" style="text;strokeColor=none;fillColor=none;align=left;verticalAlign=top;spacingLeft=4;spacingRight=4;overflow=hidden;rotatable=0;points=[[0,0.5],[1,0.5]];portConstraint=eastwest;whiteSpace=wrap;html=1;" parent="N5dowPaXgB27e-xXzKCq-12" vertex="1">
          <mxGeometry y="60" width="360" height="30" as="geometry" />
        </mxCell>
        <mxCell id="N5dowPaXgB27e-xXzKCq-19" value="+ search_by_note(*keywords: str): str" style="text;strokeColor=none;fillColor=none;align=left;verticalAlign=top;spacingLeft=4;spacingRight=4;overflow=hidden;rotatable=0;points=[[0,0.5],[1,0.5]];portConstraint=eastwest;whiteSpace=wrap;html=1;" parent="N5dowPaXgB27e-xXzKCq-12" vertex="1">
          <mxGeometry y="90" width="360" height="30" as="geometry" />
        </mxCell>
        <mxCell id="N5dowPaXgB27e-xXzKCq-20" value="+ remove_note(note_name: str): str" style="text;strokeColor=none;fillColor=none;align=left;verticalAlign=top;spacingLeft=4;spacingRight=4;overflow=hidden;rotatable=0;points=[[0,0.5],[1,0.5]];portConstraint=eastwest;whiteSpace=wrap;html=1;" parent="N5dowPaXgB27e-xXzKCq-12" vertex="1">
          <mxGeometry y="120" width="360" height="30" as="geometry" />
        </mxCell>
        <mxCell id="N5dowPaXgB27e-xXzKCq-21" value="+ edit_note(note_name: str, *new_text: str): str" style="text;strokeColor=none;fillColor=none;align=left;verticalAlign=top;spacingLeft=4;spacingRight=4;overflow=hidden;rotatable=0;points=[[0,0.5],[1,0.5]];portConstraint=eastwest;whiteSpace=wrap;html=1;" parent="N5dowPaXgB27e-xXzKCq-12" vertex="1">
          <mxGeometry y="150" width="360" height="30" as="geometry" />
        </mxCell>
        <mxCell id="N5dowPaXgB27e-xXzKCq-22" value="+ add_tag(note_name: str, *tags: str): str" style="text;strokeColor=none;fillColor=none;align=left;verticalAlign=top;spacingLeft=4;spacingRight=4;overflow=hidden;rotatable=0;points=[[0,0.5],[1,0.5]];portConstraint=eastwest;whiteSpace=wrap;html=1;" parent="N5dowPaXgB27e-xXzKCq-12" vertex="1">
          <mxGeometry y="180" width="360" height="30" as="geometry" />
        </mxCell>
        <mxCell id="N5dowPaXgB27e-xXzKCq-23" value="+ remove_tag(note_name: str, *tags: str): str" style="text;strokeColor=none;fillColor=none;align=left;verticalAlign=top;spacingLeft=4;spacingRight=4;overflow=hidden;rotatable=0;points=[[0,0.5],[1,0.5]];portConstraint=eastwest;whiteSpace=wrap;html=1;" parent="N5dowPaXgB27e-xXzKCq-12" vertex="1">
          <mxGeometry y="210" width="360" height="30" as="geometry" />
        </mxCell>
        <mxCell id="N5dowPaXgB27e-xXzKCq-24" value="+ to_dict(): dict" style="text;strokeColor=none;fillColor=none;align=left;verticalAlign=top;spacingLeft=4;spacingRight=4;overflow=hidden;rotatable=0;points=[[0,0.5],[1,0.5]];portConstraint=eastwest;whiteSpace=wrap;html=1;" parent="N5dowPaXgB27e-xXzKCq-12" vertex="1">
          <mxGeometry y="240" width="360" height="30" as="geometry" />
        </mxCell>
        <mxCell id="N5dowPaXgB27e-xXzKCq-25" value="+ from_dict(file_data: dict)" style="text;strokeColor=none;fillColor=none;align=left;verticalAlign=top;spacingLeft=4;spacingRight=4;overflow=hidden;rotatable=0;points=[[0,0.5],[1,0.5]];portConstraint=eastwest;whiteSpace=wrap;html=1;" parent="N5dowPaXgB27e-xXzKCq-12" vertex="1">
          <mxGeometry y="270" width="360" height="30" as="geometry" />
        </mxCell>
        <mxCell id="N5dowPaXgB27e-xXzKCq-26" value="+ save()" style="text;strokeColor=none;fillColor=none;align=left;verticalAlign=top;spacingLeft=4;spacingRight=4;overflow=hidden;rotatable=0;points=[[0,0.5],[1,0.5]];portConstraint=eastwest;whiteSpace=wrap;html=1;" parent="N5dowPaXgB27e-xXzKCq-12" vertex="1">
          <mxGeometry y="300" width="360" height="30" as="geometry" />
        </mxCell>
        <mxCell id="N5dowPaXgB27e-xXzKCq-27" value="+ load()" style="text;strokeColor=none;fillColor=none;align=left;verticalAlign=top;spacingLeft=4;spacingRight=4;overflow=hidden;rotatable=0;points=[[0,0.5],[1,0.5]];portConstraint=eastwest;whiteSpace=wrap;html=1;" parent="N5dowPaXgB27e-xXzKCq-12" vertex="1">
          <mxGeometry y="330" width="360" height="30" as="geometry" />
        </mxCell>
        <mxCell id="N5dowPaXgB27e-xXzKCq-28" value="Field" style="swimlane;fontStyle=1;align=center;verticalAlign=top;childLayout=stackLayout;horizontal=1;startSize=26;horizontalStack=0;resizeParent=1;resizeParentMax=0;resizeLast=0;collapsible=1;marginBottom=0;whiteSpace=wrap;html=1;" parent="1" vertex="1">
          <mxGeometry x="319" y="1120" width="200" height="90" as="geometry">
            <mxRectangle x="308" y="110" width="70" height="30" as="alternateBounds" />
          </mxGeometry>
        </mxCell>
        <object label="&lt;div&gt;+ value&lt;br&gt;&lt;/div&gt;" name="string" id="N5dowPaXgB27e-xXzKCq-30">
          <mxCell style="text;strokeColor=none;fillColor=none;align=left;verticalAlign=top;spacingLeft=4;spacingRight=4;overflow=hidden;rotatable=0;points=[[0,0.5],[1,0.5]];portConstraint=eastwest;whiteSpace=wrap;html=1;" parent="N5dowPaXgB27e-xXzKCq-28" vertex="1">
            <mxGeometry y="26" width="200" height="26" as="geometry" />
          </mxCell>
        </object>
        <mxCell id="N5dowPaXgB27e-xXzKCq-32" value="" style="line;strokeWidth=1;fillColor=none;align=left;verticalAlign=middle;spacingTop=-1;spacingLeft=3;spacingRight=3;rotatable=0;labelPosition=right;points=[];portConstraint=eastwest;strokeColor=inherit;" parent="N5dowPaXgB27e-xXzKCq-28" vertex="1">
          <mxGeometry y="52" width="200" height="8" as="geometry" />
        </mxCell>
        <mxCell id="N5dowPaXgB27e-xXzKCq-35" value="+ __str__(): str" style="text;strokeColor=none;fillColor=none;align=left;verticalAlign=top;spacingLeft=4;spacingRight=4;overflow=hidden;rotatable=0;points=[[0,0.5],[1,0.5]];portConstraint=eastwest;whiteSpace=wrap;html=1;" parent="N5dowPaXgB27e-xXzKCq-28" vertex="1">
          <mxGeometry y="60" width="200" height="30" as="geometry" />
        </mxCell>
        <mxCell id="N5dowPaXgB27e-xXzKCq-36" value="Name" style="swimlane;fontStyle=1;align=center;verticalAlign=top;childLayout=stackLayout;horizontal=1;startSize=26;horizontalStack=0;resizeParent=1;resizeParentMax=0;resizeLast=0;collapsible=1;marginBottom=0;whiteSpace=wrap;html=1;" parent="1" vertex="1">
          <mxGeometry x="180" y="770" width="210" height="90" as="geometry">
            <mxRectangle x="308" y="110" width="70" height="30" as="alternateBounds" />
          </mxGeometry>
        </mxCell>
        <object label="&lt;div&gt;+ value&lt;br&gt;&lt;/div&gt;" name="string" id="N5dowPaXgB27e-xXzKCq-37">
          <mxCell style="text;strokeColor=none;fillColor=none;align=left;verticalAlign=top;spacingLeft=4;spacingRight=4;overflow=hidden;rotatable=0;points=[[0,0.5],[1,0.5]];portConstraint=eastwest;whiteSpace=wrap;html=1;" parent="N5dowPaXgB27e-xXzKCq-36" vertex="1">
            <mxGeometry y="26" width="210" height="26" as="geometry" />
          </mxCell>
        </object>
        <mxCell id="N5dowPaXgB27e-xXzKCq-38" value="" style="line;strokeWidth=1;fillColor=none;align=left;verticalAlign=middle;spacingTop=-1;spacingLeft=3;spacingRight=3;rotatable=0;labelPosition=right;points=[];portConstraint=eastwest;strokeColor=inherit;" parent="N5dowPaXgB27e-xXzKCq-36" vertex="1">
          <mxGeometry y="52" width="210" height="8" as="geometry" />
        </mxCell>
        <mxCell id="N5dowPaXgB27e-xXzKCq-40" value="+ __str__(): str" style="text;strokeColor=none;fillColor=none;align=left;verticalAlign=top;spacingLeft=4;spacingRight=4;overflow=hidden;rotatable=0;points=[[0,0.5],[1,0.5]];portConstraint=eastwest;whiteSpace=wrap;html=1;" parent="N5dowPaXgB27e-xXzKCq-36" vertex="1">
          <mxGeometry y="60" width="210" height="30" as="geometry" />
        </mxCell>
        <mxCell id="N5dowPaXgB27e-xXzKCq-41" value="Phone" style="swimlane;fontStyle=1;align=center;verticalAlign=top;childLayout=stackLayout;horizontal=1;startSize=26;horizontalStack=0;resizeParent=1;resizeParentMax=0;resizeLast=0;collapsible=1;marginBottom=0;whiteSpace=wrap;html=1;" parent="1" vertex="1">
          <mxGeometry x="450" y="950" width="210" height="116" as="geometry">
            <mxRectangle x="308" y="110" width="70" height="30" as="alternateBounds" />
          </mxGeometry>
        </mxCell>
        <object label="&lt;div&gt;- __value: str&lt;br&gt;&lt;/div&gt;" name="string" id="N5dowPaXgB27e-xXzKCq-42">
          <mxCell style="text;strokeColor=none;fillColor=none;align=left;verticalAlign=top;spacingLeft=4;spacingRight=4;overflow=hidden;rotatable=0;points=[[0,0.5],[1,0.5]];portConstraint=eastwest;whiteSpace=wrap;html=1;" parent="N5dowPaXgB27e-xXzKCq-41" vertex="1">
            <mxGeometry y="26" width="210" height="26" as="geometry" />
          </mxCell>
        </object>
        <object label="&lt;div&gt;+ value: str&lt;br&gt;&lt;/div&gt;" name="string" id="N5dowPaXgB27e-xXzKCq-46">
          <mxCell style="text;strokeColor=none;fillColor=none;align=left;verticalAlign=top;spacingLeft=4;spacingRight=4;overflow=hidden;rotatable=0;points=[[0,0.5],[1,0.5]];portConstraint=eastwest;whiteSpace=wrap;html=1;" parent="N5dowPaXgB27e-xXzKCq-41" vertex="1">
            <mxGeometry y="52" width="210" height="26" as="geometry" />
          </mxCell>
        </object>
        <mxCell id="N5dowPaXgB27e-xXzKCq-43" value="" style="line;strokeWidth=1;fillColor=none;align=left;verticalAlign=middle;spacingTop=-1;spacingLeft=3;spacingRight=3;rotatable=0;labelPosition=right;points=[];portConstraint=eastwest;strokeColor=inherit;" parent="N5dowPaXgB27e-xXzKCq-41" vertex="1">
          <mxGeometry y="78" width="210" height="8" as="geometry" />
        </mxCell>
        <mxCell id="N5dowPaXgB27e-xXzKCq-45" value="+ __repr__(): str" style="text;strokeColor=none;fillColor=none;align=left;verticalAlign=top;spacingLeft=4;spacingRight=4;overflow=hidden;rotatable=0;points=[[0,0.5],[1,0.5]];portConstraint=eastwest;whiteSpace=wrap;html=1;" parent="N5dowPaXgB27e-xXzKCq-41" vertex="1">
          <mxGeometry y="86" width="210" height="30" as="geometry" />
        </mxCell>
        <mxCell id="rcgNsUgau14ufXCpL1kU-1" value="Birthday" style="swimlane;fontStyle=1;align=center;verticalAlign=top;childLayout=stackLayout;horizontal=1;startSize=26;horizontalStack=0;resizeParent=1;resizeParentMax=0;resizeLast=0;collapsible=1;marginBottom=0;whiteSpace=wrap;html=1;" parent="1" vertex="1">
          <mxGeometry x="450" y="770" width="210" height="146" as="geometry">
            <mxRectangle x="308" y="110" width="70" height="30" as="alternateBounds" />
          </mxGeometry>
        </mxCell>
        <object label="&lt;div&gt;- __value: str&lt;br&gt;&lt;/div&gt;" name="string" id="rcgNsUgau14ufXCpL1kU-2">
          <mxCell style="text;strokeColor=none;fillColor=none;align=left;verticalAlign=top;spacingLeft=4;spacingRight=4;overflow=hidden;rotatable=0;points=[[0,0.5],[1,0.5]];portConstraint=eastwest;whiteSpace=wrap;html=1;" parent="rcgNsUgau14ufXCpL1kU-1" vertex="1">
            <mxGeometry y="26" width="210" height="26" as="geometry" />
          </mxCell>
        </object>
        <object label="&lt;div&gt;+ value: str&lt;br&gt;&lt;/div&gt;" name="string" id="rcgNsUgau14ufXCpL1kU-3">
          <mxCell style="text;strokeColor=none;fillColor=none;align=left;verticalAlign=top;spacingLeft=4;spacingRight=4;overflow=hidden;rotatable=0;points=[[0,0.5],[1,0.5]];portConstraint=eastwest;whiteSpace=wrap;html=1;" parent="rcgNsUgau14ufXCpL1kU-1" vertex="1">
            <mxGeometry y="52" width="210" height="26" as="geometry" />
          </mxCell>
        </object>
        <mxCell id="rcgNsUgau14ufXCpL1kU-4" value="" style="line;strokeWidth=1;fillColor=none;align=left;verticalAlign=middle;spacingTop=-1;spacingLeft=3;spacingRight=3;rotatable=0;labelPosition=right;points=[];portConstraint=eastwest;strokeColor=inherit;" parent="rcgNsUgau14ufXCpL1kU-1" vertex="1">
          <mxGeometry y="78" width="210" height="8" as="geometry" />
        </mxCell>
        <mxCell id="rcgNsUgau14ufXCpL1kU-5" value="+ set_date(bday: str): str" style="text;strokeColor=none;fillColor=none;align=left;verticalAlign=top;spacingLeft=4;spacingRight=4;overflow=hidden;rotatable=0;points=[[0,0.5],[1,0.5]];portConstraint=eastwest;whiteSpace=wrap;html=1;" parent="rcgNsUgau14ufXCpL1kU-1" vertex="1">
          <mxGeometry y="86" width="210" height="30" as="geometry" />
        </mxCell>
        <mxCell id="rcgNsUgau14ufXCpL1kU-6" value="+ __str__(): str" style="text;strokeColor=none;fillColor=none;align=left;verticalAlign=top;spacingLeft=4;spacingRight=4;overflow=hidden;rotatable=0;points=[[0,0.5],[1,0.5]];portConstraint=eastwest;whiteSpace=wrap;html=1;" parent="rcgNsUgau14ufXCpL1kU-1" vertex="1">
          <mxGeometry y="116" width="210" height="30" as="geometry" />
        </mxCell>
        <mxCell id="rcgNsUgau14ufXCpL1kU-7" value="Adress" style="swimlane;fontStyle=1;align=center;verticalAlign=top;childLayout=stackLayout;horizontal=1;startSize=26;horizontalStack=0;resizeParent=1;resizeParentMax=0;resizeLast=0;collapsible=1;marginBottom=0;whiteSpace=wrap;html=1;" parent="1" vertex="1">
          <mxGeometry x="180" y="1010" width="210" height="34" as="geometry">
            <mxRectangle x="308" y="110" width="70" height="30" as="alternateBounds" />
          </mxGeometry>
        </mxCell>
        <mxCell id="rcgNsUgau14ufXCpL1kU-12" value="Email" style="swimlane;fontStyle=1;align=center;verticalAlign=top;childLayout=stackLayout;horizontal=1;startSize=26;horizontalStack=0;resizeParent=1;resizeParentMax=0;resizeLast=0;collapsible=1;marginBottom=0;whiteSpace=wrap;html=1;" parent="1" vertex="1">
          <mxGeometry x="180" y="890" width="210" height="78" as="geometry">
            <mxRectangle x="308" y="110" width="70" height="30" as="alternateBounds" />
          </mxGeometry>
        </mxCell>
        <object label="&lt;div&gt;- __value: str&lt;br&gt;&lt;/div&gt;" name="string" id="rcgNsUgau14ufXCpL1kU-13">
          <mxCell style="text;strokeColor=none;fillColor=none;align=left;verticalAlign=top;spacingLeft=4;spacingRight=4;overflow=hidden;rotatable=0;points=[[0,0.5],[1,0.5]];portConstraint=eastwest;whiteSpace=wrap;html=1;" parent="rcgNsUgau14ufXCpL1kU-12" vertex="1">
            <mxGeometry y="26" width="210" height="26" as="geometry" />
          </mxCell>
        </object>
        <object label="&lt;div&gt;+ value: str&lt;br&gt;&lt;/div&gt;" name="string" id="rcgNsUgau14ufXCpL1kU-14">
          <mxCell style="text;strokeColor=none;fillColor=none;align=left;verticalAlign=top;spacingLeft=4;spacingRight=4;overflow=hidden;rotatable=0;points=[[0,0.5],[1,0.5]];portConstraint=eastwest;whiteSpace=wrap;html=1;" parent="rcgNsUgau14ufXCpL1kU-12" vertex="1">
            <mxGeometry y="52" width="210" height="26" as="geometry" />
          </mxCell>
        </object>
        <mxCell id="rcgNsUgau14ufXCpL1kU-18" value="Record" style="swimlane;fontStyle=1;align=center;verticalAlign=top;childLayout=stackLayout;horizontal=1;startSize=26;horizontalStack=0;resizeParent=1;resizeParentMax=0;resizeLast=0;collapsible=1;marginBottom=0;whiteSpace=wrap;html=1;" parent="1" vertex="1">
          <mxGeometry x="1160" y="360" width="280" height="344" as="geometry">
            <mxRectangle x="308" y="110" width="70" height="30" as="alternateBounds" />
          </mxGeometry>
        </mxCell>
        <object label="&lt;div&gt;+ name: Name&lt;br&gt;&lt;/div&gt;" name="string" id="rcgNsUgau14ufXCpL1kU-19">
          <mxCell style="text;strokeColor=none;fillColor=none;align=left;verticalAlign=top;spacingLeft=4;spacingRight=4;overflow=hidden;rotatable=0;points=[[0,0.5],[1,0.5]];portConstraint=eastwest;whiteSpace=wrap;html=1;" parent="rcgNsUgau14ufXCpL1kU-18" vertex="1">
            <mxGeometry y="26" width="280" height="26" as="geometry" />
          </mxCell>
        </object>
        <object label="&lt;div&gt;+ phones: list[Phone]&lt;br&gt;&lt;/div&gt;" name="string" id="rcgNsUgau14ufXCpL1kU-23">
          <mxCell style="text;strokeColor=none;fillColor=none;align=left;verticalAlign=top;spacingLeft=4;spacingRight=4;overflow=hidden;rotatable=0;points=[[0,0.5],[1,0.5]];portConstraint=eastwest;whiteSpace=wrap;html=1;" parent="rcgNsUgau14ufXCpL1kU-18" vertex="1">
            <mxGeometry y="52" width="280" height="26" as="geometry" />
          </mxCell>
        </object>
        <object label="&lt;div&gt;+ birthday: str&lt;br&gt;&lt;/div&gt;" name="string" id="rcgNsUgau14ufXCpL1kU-25">
          <mxCell style="text;strokeColor=none;fillColor=none;align=left;verticalAlign=top;spacingLeft=4;spacingRight=4;overflow=hidden;rotatable=0;points=[[0,0.5],[1,0.5]];portConstraint=eastwest;whiteSpace=wrap;html=1;" parent="rcgNsUgau14ufXCpL1kU-18" vertex="1">
            <mxGeometry y="78" width="280" height="26" as="geometry" />
          </mxCell>
        </object>
        <object label="&lt;div&gt;+ adress: Adress&lt;br&gt;&lt;/div&gt;" name="string" id="rcgNsUgau14ufXCpL1kU-24">
          <mxCell style="text;strokeColor=none;fillColor=none;align=left;verticalAlign=top;spacingLeft=4;spacingRight=4;overflow=hidden;rotatable=0;points=[[0,0.5],[1,0.5]];portConstraint=eastwest;whiteSpace=wrap;html=1;" parent="rcgNsUgau14ufXCpL1kU-18" vertex="1">
            <mxGeometry y="104" width="280" height="26" as="geometry" />
          </mxCell>
        </object>
        <object label="&lt;div&gt;+ email: Email&lt;br&gt;&lt;/div&gt;" name="string" id="rcgNsUgau14ufXCpL1kU-26">
          <mxCell style="text;strokeColor=none;fillColor=none;align=left;verticalAlign=top;spacingLeft=4;spacingRight=4;overflow=hidden;rotatable=0;points=[[0,0.5],[1,0.5]];portConstraint=eastwest;whiteSpace=wrap;html=1;" parent="rcgNsUgau14ufXCpL1kU-18" vertex="1">
            <mxGeometry y="130" width="280" height="26" as="geometry" />
          </mxCell>
        </object>
        <mxCell id="rcgNsUgau14ufXCpL1kU-20" value="" style="line;strokeWidth=1;fillColor=none;align=left;verticalAlign=middle;spacingTop=-1;spacingLeft=3;spacingRight=3;rotatable=0;labelPosition=right;points=[];portConstraint=eastwest;strokeColor=inherit;" parent="rcgNsUgau14ufXCpL1kU-18" vertex="1">
          <mxGeometry y="156" width="280" height="8" as="geometry" />
        </mxCell>
        <mxCell id="rcgNsUgau14ufXCpL1kU-27" value="+ days_to_birthaday: str" style="text;strokeColor=none;fillColor=none;align=left;verticalAlign=top;spacingLeft=4;spacingRight=4;overflow=hidden;rotatable=0;points=[[0,0.5],[1,0.5]];portConstraint=eastwest;whiteSpace=wrap;html=1;" parent="rcgNsUgau14ufXCpL1kU-18" vertex="1">
          <mxGeometry y="164" width="280" height="30" as="geometry" />
        </mxCell>
        <mxCell id="rcgNsUgau14ufXCpL1kU-28" value="+ add_phone(phone: Phone): str" style="text;strokeColor=none;fillColor=none;align=left;verticalAlign=top;spacingLeft=4;spacingRight=4;overflow=hidden;rotatable=0;points=[[0,0.5],[1,0.5]];portConstraint=eastwest;whiteSpace=wrap;html=1;" parent="rcgNsUgau14ufXCpL1kU-18" vertex="1">
          <mxGeometry y="194" width="280" height="30" as="geometry" />
        </mxCell>
        <mxCell id="rcgNsUgau14ufXCpL1kU-29" value="+ dell_phone(phone: Phone): str" style="text;strokeColor=none;fillColor=none;align=left;verticalAlign=top;spacingLeft=4;spacingRight=4;overflow=hidden;rotatable=0;points=[[0,0.5],[1,0.5]];portConstraint=eastwest;whiteSpace=wrap;html=1;" parent="rcgNsUgau14ufXCpL1kU-18" vertex="1">
          <mxGeometry y="224" width="280" height="30" as="geometry" />
        </mxCell>
        <mxCell id="rcgNsUgau14ufXCpL1kU-30" value="+ change(phone: Phone, new_phone: Phone): str" style="text;strokeColor=none;fillColor=none;align=left;verticalAlign=top;spacingLeft=4;spacingRight=4;overflow=hidden;rotatable=0;points=[[0,0.5],[1,0.5]];portConstraint=eastwest;whiteSpace=wrap;html=1;" parent="rcgNsUgau14ufXCpL1kU-18" vertex="1">
          <mxGeometry y="254" width="280" height="30" as="geometry" />
        </mxCell>
        <mxCell id="rcgNsUgau14ufXCpL1kU-22" value="+ __str__(): str" style="text;strokeColor=none;fillColor=none;align=left;verticalAlign=top;spacingLeft=4;spacingRight=4;overflow=hidden;rotatable=0;points=[[0,0.5],[1,0.5]];portConstraint=eastwest;whiteSpace=wrap;html=1;" parent="rcgNsUgau14ufXCpL1kU-18" vertex="1">
          <mxGeometry y="284" width="280" height="30" as="geometry" />
        </mxCell>
        <mxCell id="rcgNsUgau14ufXCpL1kU-31" value="+ __repr__(): str" style="text;strokeColor=none;fillColor=none;align=left;verticalAlign=top;spacingLeft=4;spacingRight=4;overflow=hidden;rotatable=0;points=[[0,0.5],[1,0.5]];portConstraint=eastwest;whiteSpace=wrap;html=1;" parent="rcgNsUgau14ufXCpL1kU-18" vertex="1">
          <mxGeometry y="314" width="280" height="30" as="geometry" />
        </mxCell>
        <mxCell id="rcgNsUgau14ufXCpL1kU-32" value="Addressbook" style="swimlane;fontStyle=1;align=center;verticalAlign=top;childLayout=stackLayout;horizontal=1;startSize=26;horizontalStack=0;resizeParent=1;resizeParentMax=0;resizeLast=0;collapsible=1;marginBottom=0;whiteSpace=wrap;html=1;" parent="1" vertex="1">
          <mxGeometry x="1080" y="-80" width="440" height="390" as="geometry">
            <mxRectangle x="308" y="110" width="70" height="30" as="alternateBounds" />
          </mxGeometry>
        </mxCell>
        <object label="&lt;div&gt;+ data: dict&lt;br&gt;&lt;/div&gt;" name="string" id="rcgNsUgau14ufXCpL1kU-33">
          <mxCell style="text;strokeColor=none;fillColor=none;align=left;verticalAlign=top;spacingLeft=4;spacingRight=4;overflow=hidden;rotatable=0;points=[[0,0.5],[1,0.5]];portConstraint=eastwest;whiteSpace=wrap;html=1;" parent="rcgNsUgau14ufXCpL1kU-32" vertex="1">
            <mxGeometry y="26" width="440" height="26" as="geometry" />
          </mxCell>
        </object>
        <mxCell id="rcgNsUgau14ufXCpL1kU-34" value="" style="line;strokeWidth=1;fillColor=none;align=left;verticalAlign=middle;spacingTop=-1;spacingLeft=3;spacingRight=3;rotatable=0;labelPosition=right;points=[];portConstraint=eastwest;strokeColor=inherit;" parent="rcgNsUgau14ufXCpL1kU-32" vertex="1">
          <mxGeometry y="52" width="440" height="8" as="geometry" />
        </mxCell>
        <mxCell id="rcgNsUgau14ufXCpL1kU-36" value="+ add_contact(record: Record)" style="text;strokeColor=none;fillColor=none;align=left;verticalAlign=top;spacingLeft=4;spacingRight=4;overflow=hidden;rotatable=0;points=[[0,0.5],[1,0.5]];portConstraint=eastwest;whiteSpace=wrap;html=1;" parent="rcgNsUgau14ufXCpL1kU-32" vertex="1">
          <mxGeometry y="60" width="440" height="30" as="geometry" />
        </mxCell>
        <mxCell id="rcgNsUgau14ufXCpL1kU-37" value="+ display_contact(name: str): str" style="text;strokeColor=none;fillColor=none;align=left;verticalAlign=top;spacingLeft=4;spacingRight=4;overflow=hidden;rotatable=0;points=[[0,0.5],[1,0.5]];portConstraint=eastwest;whiteSpace=wrap;html=1;" parent="rcgNsUgau14ufXCpL1kU-32" vertex="1">
          <mxGeometry y="90" width="440" height="30" as="geometry" />
        </mxCell>
        <mxCell id="rcgNsUgau14ufXCpL1kU-38" value="+ find_phone(name: Name): str" style="text;strokeColor=none;fillColor=none;align=left;verticalAlign=top;spacingLeft=4;spacingRight=4;overflow=hidden;rotatable=0;points=[[0,0.5],[1,0.5]];portConstraint=eastwest;whiteSpace=wrap;html=1;" parent="rcgNsUgau14ufXCpL1kU-32" vertex="1">
          <mxGeometry y="120" width="440" height="30" as="geometry" />
        </mxCell>
        <mxCell id="rcgNsUgau14ufXCpL1kU-39" value="+ dell_contact(name: Name): str" style="text;strokeColor=none;fillColor=none;align=left;verticalAlign=top;spacingLeft=4;spacingRight=4;overflow=hidden;rotatable=0;points=[[0,0.5],[1,0.5]];portConstraint=eastwest;whiteSpace=wrap;html=1;" parent="rcgNsUgau14ufXCpL1kU-32" vertex="1">
          <mxGeometry y="150" width="440" height="30" as="geometry" />
        </mxCell>
        <mxCell id="rcgNsUgau14ufXCpL1kU-40" value="+ iterator(items_per_page: int): str" style="text;strokeColor=none;fillColor=none;align=left;verticalAlign=top;spacingLeft=4;spacingRight=4;overflow=hidden;rotatable=0;points=[[0,0.5],[1,0.5]];portConstraint=eastwest;whiteSpace=wrap;html=1;" parent="rcgNsUgau14ufXCpL1kU-32" vertex="1">
          <mxGeometry y="180" width="440" height="30" as="geometry" />
        </mxCell>
        <mxCell id="rcgNsUgau14ufXCpL1kU-41" value="+ remove_tag(note_name: str, *tags: str): str" style="text;strokeColor=none;fillColor=none;align=left;verticalAlign=top;spacingLeft=4;spacingRight=4;overflow=hidden;rotatable=0;points=[[0,0.5],[1,0.5]];portConstraint=eastwest;whiteSpace=wrap;html=1;" parent="rcgNsUgau14ufXCpL1kU-32" vertex="1">
          <mxGeometry y="210" width="440" height="30" as="geometry" />
        </mxCell>
        <mxCell id="rcgNsUgau14ufXCpL1kU-42" value="+ show_all(arg: int): str" style="text;strokeColor=none;fillColor=none;align=left;verticalAlign=top;spacingLeft=4;spacingRight=4;overflow=hidden;rotatable=0;points=[[0,0.5],[1,0.5]];portConstraint=eastwest;whiteSpace=wrap;html=1;" parent="rcgNsUgau14ufXCpL1kU-32" vertex="1">
          <mxGeometry y="240" width="440" height="30" as="geometry" />
        </mxCell>
        <mxCell id="rcgNsUgau14ufXCpL1kU-43" value="+ find(value: str): str" style="text;strokeColor=none;fillColor=none;align=left;verticalAlign=top;spacingLeft=4;spacingRight=4;overflow=hidden;rotatable=0;points=[[0,0.5],[1,0.5]];portConstraint=eastwest;whiteSpace=wrap;html=1;" parent="rcgNsUgau14ufXCpL1kU-32" vertex="1">
          <mxGeometry y="270" width="440" height="30" as="geometry" />
        </mxCell>
        <mxCell id="rcgNsUgau14ufXCpL1kU-44" value="+ save_file()" style="text;strokeColor=none;fillColor=none;align=left;verticalAlign=top;spacingLeft=4;spacingRight=4;overflow=hidden;rotatable=0;points=[[0,0.5],[1,0.5]];portConstraint=eastwest;whiteSpace=wrap;html=1;" parent="rcgNsUgau14ufXCpL1kU-32" vertex="1">
          <mxGeometry y="300" width="440" height="30" as="geometry" />
        </mxCell>
        <mxCell id="rcgNsUgau14ufXCpL1kU-45" value="+ read_file()" style="text;strokeColor=none;fillColor=none;align=left;verticalAlign=top;spacingLeft=4;spacingRight=4;overflow=hidden;rotatable=0;points=[[0,0.5],[1,0.5]];portConstraint=eastwest;whiteSpace=wrap;html=1;" parent="rcgNsUgau14ufXCpL1kU-32" vertex="1">
          <mxGeometry y="330" width="440" height="30" as="geometry" />
        </mxCell>
        <mxCell id="rcgNsUgau14ufXCpL1kU-46" value="+ __str__(): str" style="text;strokeColor=none;fillColor=none;align=left;verticalAlign=top;spacingLeft=4;spacingRight=4;overflow=hidden;rotatable=0;points=[[0,0.5],[1,0.5]];portConstraint=eastwest;whiteSpace=wrap;html=1;" parent="rcgNsUgau14ufXCpL1kU-32" vertex="1">
          <mxGeometry y="360" width="440" height="30" as="geometry" />
        </mxCell>
        <mxCell id="8lQ2k9Wn2JHi0mMJinNE-1" value="" style="endArrow=block;endSize=16;endFill=0;html=1;rounded=0;exitX=0.477;exitY=1.052;exitDx=0;exitDy=0;exitPerimeter=0;" parent="1" source="N5dowPaXgB27e-xXzKCq-40" target="N5dowPaXgB27e-xXzKCq-28" edge="1">
          <mxGeometry width="160" relative="1" as="geometry">
            <mxPoint x="450" y="800" as="sourcePoint" />
            <mxPoint x="720" y="680" as="targetPoint" />
            <Array as="points">
              <mxPoint x="280" y="880" />
              <mxPoint x="420" y="880" />
            </Array>
          </mxGeometry>
        </mxCell>
        <mxCell id="8lQ2k9Wn2JHi0mMJinNE-4" value="&lt;div&gt;&lt;br&gt;&lt;/div&gt;" style="endArrow=block;endSize=16;endFill=0;html=1;rounded=0;exitX=0.525;exitY=1.008;exitDx=0;exitDy=0;exitPerimeter=0;" parent="1" source="rcgNsUgau14ufXCpL1kU-6" edge="1">
          <mxGeometry width="160" relative="1" as="geometry">
            <mxPoint x="560" y="920" as="sourcePoint" />
            <mxPoint x="420" y="1120" as="targetPoint" />
            <Array as="points">
              <mxPoint x="560" y="940" />
              <mxPoint x="420" y="940" />
            </Array>
          </mxGeometry>
        </mxCell>
        <mxCell id="8lQ2k9Wn2JHi0mMJinNE-5" value="" style="endArrow=block;endSize=16;endFill=0;html=1;rounded=0;exitX=0.477;exitY=0.987;exitDx=0;exitDy=0;exitPerimeter=0;" parent="1" source="rcgNsUgau14ufXCpL1kU-14" edge="1">
          <mxGeometry width="160" relative="1" as="geometry">
            <mxPoint x="290" y="870" as="sourcePoint" />
            <mxPoint x="420" y="1120" as="targetPoint" />
            <Array as="points">
              <mxPoint x="280" y="990" />
              <mxPoint x="420" y="990" />
            </Array>
          </mxGeometry>
        </mxCell>
        <mxCell id="8lQ2k9Wn2JHi0mMJinNE-6" value="" style="endArrow=block;endSize=16;endFill=0;html=1;rounded=0;exitX=0.524;exitY=1.033;exitDx=0;exitDy=0;exitPerimeter=0;" parent="1" source="N5dowPaXgB27e-xXzKCq-45" edge="1">
          <mxGeometry width="160" relative="1" as="geometry">
            <mxPoint x="280" y="780" as="sourcePoint" />
            <mxPoint x="420" y="1120" as="targetPoint" />
            <Array as="points">
              <mxPoint x="560" y="1080" />
              <mxPoint x="420" y="1080" />
            </Array>
          </mxGeometry>
        </mxCell>
        <mxCell id="8lQ2k9Wn2JHi0mMJinNE-7" value="" style="endArrow=block;endSize=16;endFill=0;html=1;rounded=0;exitX=0.5;exitY=1;exitDx=0;exitDy=0;entryX=0.5;entryY=0;entryDx=0;entryDy=0;" parent="1" source="rcgNsUgau14ufXCpL1kU-7" edge="1" target="N5dowPaXgB27e-xXzKCq-28">
          <mxGeometry width="160" relative="1" as="geometry">
            <mxPoint x="280" y="780" as="sourcePoint" />
            <mxPoint x="420" y="710" as="targetPoint" />
            <Array as="points">
              <mxPoint x="285" y="1080" />
              <mxPoint x="419" y="1080" />
            </Array>
          </mxGeometry>
        </mxCell>
        <mxCell id="qr1zeOYBX0D0OLAc-7lU-1" value="&lt;i&gt;DisplayData&lt;/i&gt;" style="swimlane;fontStyle=1;align=center;verticalAlign=top;childLayout=stackLayout;horizontal=1;startSize=26;horizontalStack=0;resizeParent=1;resizeParentMax=0;resizeLast=0;collapsible=1;marginBottom=0;whiteSpace=wrap;html=1;" vertex="1" parent="1">
          <mxGeometry x="720" y="-80" width="240" height="146" as="geometry">
            <mxRectangle x="308" y="110" width="70" height="30" as="alternateBounds" />
          </mxGeometry>
        </mxCell>
        <object label="&lt;div&gt;+ book: AddressBook | Notebook&lt;br&gt;&lt;/div&gt;" name="string" id="qr1zeOYBX0D0OLAc-7lU-2">
          <mxCell style="text;strokeColor=none;fillColor=none;align=left;verticalAlign=top;spacingLeft=4;spacingRight=4;overflow=hidden;rotatable=0;points=[[0,0.5],[1,0.5]];portConstraint=eastwest;whiteSpace=wrap;html=1;" vertex="1" parent="qr1zeOYBX0D0OLAc-7lU-1">
            <mxGeometry y="26" width="240" height="26" as="geometry" />
          </mxCell>
        </object>
        <object label="&lt;div&gt;+ divider: str&lt;/div&gt;" name="string" id="qr1zeOYBX0D0OLAc-7lU-3">
          <mxCell style="text;strokeColor=none;fillColor=none;align=left;verticalAlign=top;spacingLeft=4;spacingRight=4;overflow=hidden;rotatable=0;points=[[0,0.5],[1,0.5]];portConstraint=eastwest;whiteSpace=wrap;html=1;" vertex="1" parent="qr1zeOYBX0D0OLAc-7lU-1">
            <mxGeometry y="52" width="240" height="26" as="geometry" />
          </mxCell>
        </object>
        <mxCell id="qr1zeOYBX0D0OLAc-7lU-5" value="" style="line;strokeWidth=1;fillColor=none;align=left;verticalAlign=middle;spacingTop=-1;spacingLeft=3;spacingRight=3;rotatable=0;labelPosition=right;points=[];portConstraint=eastwest;strokeColor=inherit;" vertex="1" parent="qr1zeOYBX0D0OLAc-7lU-1">
          <mxGeometry y="78" width="240" height="8" as="geometry" />
        </mxCell>
        <mxCell id="qr1zeOYBX0D0OLAc-7lU-6" value="+ generate_text(name)" style="text;strokeColor=none;fillColor=none;align=left;verticalAlign=top;spacingLeft=4;spacingRight=4;overflow=hidden;rotatable=0;points=[[0,0.5],[1,0.5]];portConstraint=eastwest;whiteSpace=wrap;html=1;" vertex="1" parent="qr1zeOYBX0D0OLAc-7lU-1">
          <mxGeometry y="86" width="240" height="30" as="geometry" />
        </mxCell>
        <mxCell id="qr1zeOYBX0D0OLAc-7lU-7" value="+ iterator(items_per_page)" style="text;strokeColor=none;fillColor=none;align=left;verticalAlign=top;spacingLeft=4;spacingRight=4;overflow=hidden;rotatable=0;points=[[0,0.5],[1,0.5]];portConstraint=eastwest;whiteSpace=wrap;html=1;" vertex="1" parent="qr1zeOYBX0D0OLAc-7lU-1">
          <mxGeometry y="116" width="240" height="30" as="geometry" />
        </mxCell>
        <mxCell id="qr1zeOYBX0D0OLAc-7lU-8" value="DisplayNote" style="swimlane;fontStyle=1;align=center;verticalAlign=top;childLayout=stackLayout;horizontal=1;startSize=26;horizontalStack=0;resizeParent=1;resizeParentMax=0;resizeLast=0;collapsible=1;marginBottom=0;whiteSpace=wrap;html=1;" vertex="1" parent="1">
          <mxGeometry x="630" y="146" width="180" height="90" as="geometry">
            <mxRectangle x="308" y="110" width="70" height="30" as="alternateBounds" />
          </mxGeometry>
        </mxCell>
        <object label="&lt;div&gt;+ book: Notebook&lt;br&gt;&lt;/div&gt;" name="string" id="qr1zeOYBX0D0OLAc-7lU-9">
          <mxCell style="text;strokeColor=none;fillColor=none;align=left;verticalAlign=top;spacingLeft=4;spacingRight=4;overflow=hidden;rotatable=0;points=[[0,0.5],[1,0.5]];portConstraint=eastwest;whiteSpace=wrap;html=1;" vertex="1" parent="qr1zeOYBX0D0OLAc-7lU-8">
            <mxGeometry y="26" width="180" height="26" as="geometry" />
          </mxCell>
        </object>
        <mxCell id="qr1zeOYBX0D0OLAc-7lU-11" value="" style="line;strokeWidth=1;fillColor=none;align=left;verticalAlign=middle;spacingTop=-1;spacingLeft=3;spacingRight=3;rotatable=0;labelPosition=right;points=[];portConstraint=eastwest;strokeColor=inherit;" vertex="1" parent="qr1zeOYBX0D0OLAc-7lU-8">
          <mxGeometry y="52" width="180" height="8" as="geometry" />
        </mxCell>
        <mxCell id="qr1zeOYBX0D0OLAc-7lU-12" value="+ generate_text(name)" style="text;strokeColor=none;fillColor=none;align=left;verticalAlign=top;spacingLeft=4;spacingRight=4;overflow=hidden;rotatable=0;points=[[0,0.5],[1,0.5]];portConstraint=eastwest;whiteSpace=wrap;html=1;" vertex="1" parent="qr1zeOYBX0D0OLAc-7lU-8">
          <mxGeometry y="60" width="180" height="30" as="geometry" />
        </mxCell>
        <mxCell id="qr1zeOYBX0D0OLAc-7lU-14" value="DisplayRecord" style="swimlane;fontStyle=1;align=center;verticalAlign=top;childLayout=stackLayout;horizontal=1;startSize=26;horizontalStack=0;resizeParent=1;resizeParentMax=0;resizeLast=0;collapsible=1;marginBottom=0;whiteSpace=wrap;html=1;" vertex="1" parent="1">
          <mxGeometry x="870" y="146" width="180" height="90" as="geometry">
            <mxRectangle x="308" y="110" width="70" height="30" as="alternateBounds" />
          </mxGeometry>
        </mxCell>
        <object label="&lt;div&gt;+ book: AddressBook&lt;br&gt;&lt;/div&gt;" name="string" id="qr1zeOYBX0D0OLAc-7lU-15">
          <mxCell style="text;strokeColor=none;fillColor=none;align=left;verticalAlign=top;spacingLeft=4;spacingRight=4;overflow=hidden;rotatable=0;points=[[0,0.5],[1,0.5]];portConstraint=eastwest;whiteSpace=wrap;html=1;" vertex="1" parent="qr1zeOYBX0D0OLAc-7lU-14">
            <mxGeometry y="26" width="180" height="26" as="geometry" />
          </mxCell>
        </object>
        <mxCell id="qr1zeOYBX0D0OLAc-7lU-16" value="" style="line;strokeWidth=1;fillColor=none;align=left;verticalAlign=middle;spacingTop=-1;spacingLeft=3;spacingRight=3;rotatable=0;labelPosition=right;points=[];portConstraint=eastwest;strokeColor=inherit;" vertex="1" parent="qr1zeOYBX0D0OLAc-7lU-14">
          <mxGeometry y="52" width="180" height="8" as="geometry" />
        </mxCell>
        <mxCell id="qr1zeOYBX0D0OLAc-7lU-17" value="+ generate_text(name)" style="text;strokeColor=none;fillColor=none;align=left;verticalAlign=top;spacingLeft=4;spacingRight=4;overflow=hidden;rotatable=0;points=[[0,0.5],[1,0.5]];portConstraint=eastwest;whiteSpace=wrap;html=1;" vertex="1" parent="qr1zeOYBX0D0OLAc-7lU-14">
          <mxGeometry y="60" width="180" height="30" as="geometry" />
        </mxCell>
        <mxCell id="qr1zeOYBX0D0OLAc-7lU-18" value="" style="endArrow=block;endSize=16;endFill=0;html=1;rounded=0;entryX=0.498;entryY=1.011;entryDx=0;entryDy=0;entryPerimeter=0;exitX=0.5;exitY=0;exitDx=0;exitDy=0;" edge="1" parent="1" source="qr1zeOYBX0D0OLAc-7lU-8" target="qr1zeOYBX0D0OLAc-7lU-7">
          <mxGeometry width="160" relative="1" as="geometry">
            <mxPoint x="700" y="106" as="sourcePoint" />
            <mxPoint x="860" y="106" as="targetPoint" />
            <Array as="points">
              <mxPoint x="720" y="106" />
              <mxPoint x="840" y="106" />
            </Array>
          </mxGeometry>
        </mxCell>
        <mxCell id="qr1zeOYBX0D0OLAc-7lU-19" value="" style="endArrow=block;endSize=16;endFill=0;html=1;rounded=0;entryX=0.498;entryY=1.011;entryDx=0;entryDy=0;entryPerimeter=0;exitX=0.4;exitY=0;exitDx=0;exitDy=0;exitPerimeter=0;" edge="1" parent="1" source="qr1zeOYBX0D0OLAc-7lU-14">
          <mxGeometry width="160" relative="1" as="geometry">
            <mxPoint x="700" y="146" as="sourcePoint" />
            <mxPoint x="840" y="66" as="targetPoint" />
            <Array as="points">
              <mxPoint x="942" y="106" />
              <mxPoint x="840" y="106" />
            </Array>
          </mxGeometry>
        </mxCell>
        <mxCell id="qr1zeOYBX0D0OLAc-7lU-20" value="" style="endArrow=open;html=1;endSize=12;startArrow=diamondThin;startSize=14;startFill=1;align=left;verticalAlign=bottom;rounded=0;entryX=0.5;entryY=0;entryDx=0;entryDy=0;exitX=0.501;exitY=1.024;exitDx=0;exitDy=0;exitPerimeter=0;" edge="1" parent="1" source="N5dowPaXgB27e-xXzKCq-27" target="N5dowPaXgB27e-xXzKCq-3">
          <mxGeometry x="-0.2637" y="21" relative="1" as="geometry">
            <mxPoint x="380" y="290" as="sourcePoint" />
            <mxPoint x="970" y="460" as="targetPoint" />
            <mxPoint as="offset" />
          </mxGeometry>
        </mxCell>
        <mxCell id="qr1zeOYBX0D0OLAc-7lU-21" value="" style="endArrow=open;html=1;endSize=12;startArrow=diamondThin;startSize=14;startFill=1;align=left;verticalAlign=bottom;rounded=0;exitX=0.501;exitY=1.024;exitDx=0;exitDy=0;exitPerimeter=0;entryX=0.5;entryY=0;entryDx=0;entryDy=0;" edge="1" parent="1" target="N5dowPaXgB27e-xXzKCq-36">
          <mxGeometry x="-1" y="3" relative="1" as="geometry">
            <mxPoint x="418.64" y="532" as="sourcePoint" />
            <mxPoint x="600" y="660" as="targetPoint" />
            <Array as="points">
              <mxPoint x="420" y="640" />
              <mxPoint x="285" y="640" />
            </Array>
          </mxGeometry>
        </mxCell>
        <mxCell id="qr1zeOYBX0D0OLAc-7lU-23" value="" style="endArrow=open;html=1;endSize=12;startArrow=diamondThin;startSize=14;startFill=1;align=left;verticalAlign=bottom;rounded=0;exitX=0.501;exitY=1.024;exitDx=0;exitDy=0;exitPerimeter=0;" edge="1" parent="1">
          <mxGeometry x="-1" y="3" relative="1" as="geometry">
            <mxPoint x="433.64" y="532" as="sourcePoint" />
            <mxPoint x="560" y="770" as="targetPoint" />
            <Array as="points">
              <mxPoint x="435" y="640" />
              <mxPoint x="560" y="640" />
            </Array>
          </mxGeometry>
        </mxCell>
        <mxCell id="qr1zeOYBX0D0OLAc-7lU-24" value="" style="endArrow=open;html=1;endSize=12;startArrow=diamondThin;startSize=14;startFill=1;align=left;verticalAlign=bottom;rounded=0;exitX=0.501;exitY=1.024;exitDx=0;exitDy=0;exitPerimeter=0;" edge="1" parent="1">
          <mxGeometry x="-1" y="3" relative="1" as="geometry">
            <mxPoint x="450" y="532" as="sourcePoint" />
            <mxPoint x="660" y="960" as="targetPoint" />
            <Array as="points">
              <mxPoint x="451" y="600" />
              <mxPoint x="680" y="600" />
              <mxPoint x="680" y="960" />
            </Array>
          </mxGeometry>
        </mxCell>
        <mxCell id="qr1zeOYBX0D0OLAc-7lU-25" value="" style="endArrow=open;html=1;endSize=12;startArrow=diamondThin;startSize=14;startFill=1;align=left;verticalAlign=bottom;rounded=0;exitX=0.501;exitY=1.024;exitDx=0;exitDy=0;exitPerimeter=0;entryX=-0.005;entryY=0.137;entryDx=0;entryDy=0;entryPerimeter=0;" edge="1" parent="1" target="rcgNsUgau14ufXCpL1kU-12">
          <mxGeometry x="-1" y="3" relative="1" as="geometry">
            <mxPoint x="403.64" y="532" as="sourcePoint" />
            <mxPoint x="160" y="940" as="targetPoint" />
            <Array as="points">
              <mxPoint x="405" y="600" />
              <mxPoint x="160" y="600" />
              <mxPoint x="160" y="900" />
            </Array>
          </mxGeometry>
        </mxCell>
        <mxCell id="qr1zeOYBX0D0OLAc-7lU-26" value="" style="endArrow=open;html=1;endSize=12;startArrow=diamondThin;startSize=14;startFill=1;align=left;verticalAlign=bottom;rounded=0;exitX=0.501;exitY=1.024;exitDx=0;exitDy=0;exitPerimeter=0;entryX=0.002;entryY=0.295;entryDx=0;entryDy=0;entryPerimeter=0;" edge="1" parent="1" target="rcgNsUgau14ufXCpL1kU-7">
          <mxGeometry x="-0.943" y="1" relative="1" as="geometry">
            <mxPoint x="388.64" y="532" as="sourcePoint" />
            <mxPoint x="164" y="901" as="targetPoint" />
            <Array as="points">
              <mxPoint x="389" y="560" />
              <mxPoint x="140" y="560" />
              <mxPoint x="140" y="1020" />
            </Array>
            <mxPoint as="offset" />
          </mxGeometry>
        </mxCell>
        <mxCell id="qr1zeOYBX0D0OLAc-7lU-27" value="" style="endArrow=open;html=1;endSize=12;startArrow=diamondThin;startSize=14;startFill=1;align=left;verticalAlign=bottom;rounded=0;entryX=0.5;entryY=0;entryDx=0;entryDy=0;" edge="1" parent="1" target="rcgNsUgau14ufXCpL1kU-18">
          <mxGeometry x="-0.2637" y="21" relative="1" as="geometry">
            <mxPoint x="1300" y="310" as="sourcePoint" />
            <mxPoint x="429" y="370" as="targetPoint" />
            <mxPoint as="offset" />
          </mxGeometry>
        </mxCell>
        <mxCell id="qr1zeOYBX0D0OLAc-7lU-28" value="" style="endArrow=open;html=1;endSize=12;startArrow=diamondThin;startSize=14;startFill=0;align=left;verticalAlign=bottom;rounded=0;entryX=1.003;entryY=0.028;entryDx=0;entryDy=0;entryPerimeter=0;exitX=0.25;exitY=0;exitDx=0;exitDy=0;" edge="1" parent="1" source="qr1zeOYBX0D0OLAc-7lU-8" target="N5dowPaXgB27e-xXzKCq-12">
          <mxGeometry x="-0.2637" y="21" relative="1" as="geometry">
            <mxPoint x="680" y="140" as="sourcePoint" />
            <mxPoint x="670" y="99" as="targetPoint" />
            <Array as="points">
              <mxPoint x="675" y="-70" />
            </Array>
            <mxPoint as="offset" />
          </mxGeometry>
        </mxCell>
        <mxCell id="qr1zeOYBX0D0OLAc-7lU-29" value="" style="endArrow=open;html=1;endSize=12;startArrow=diamondThin;startSize=14;startFill=0;align=left;verticalAlign=bottom;rounded=0;" edge="1" parent="1">
          <mxGeometry x="-0.2637" y="21" relative="1" as="geometry">
            <mxPoint x="680" y="240" as="sourcePoint" />
            <mxPoint x="520" y="370" as="targetPoint" />
            <Array as="points">
              <mxPoint x="680" y="370" />
            </Array>
            <mxPoint as="offset" />
          </mxGeometry>
        </mxCell>
        <mxCell id="qr1zeOYBX0D0OLAc-7lU-30" value="" style="endArrow=open;html=1;endSize=12;startArrow=diamondThin;startSize=14;startFill=0;align=left;verticalAlign=bottom;rounded=0;entryX=-0.001;entryY=0.029;entryDx=0;entryDy=0;entryPerimeter=0;exitX=0.75;exitY=0;exitDx=0;exitDy=0;" edge="1" parent="1" source="qr1zeOYBX0D0OLAc-7lU-14" target="rcgNsUgau14ufXCpL1kU-32">
          <mxGeometry x="-0.2637" y="21" relative="1" as="geometry">
            <mxPoint x="685" y="156" as="sourcePoint" />
            <mxPoint x="610" y="-60" as="targetPoint" />
            <Array as="points">
              <mxPoint x="1005" y="-70" />
            </Array>
            <mxPoint as="offset" />
          </mxGeometry>
        </mxCell>
        <mxCell id="qr1zeOYBX0D0OLAc-7lU-31" value="" style="endArrow=open;html=1;endSize=12;startArrow=diamondThin;startSize=14;startFill=0;align=left;verticalAlign=bottom;rounded=0;exitX=0.75;exitY=1;exitDx=0;exitDy=0;entryX=-0.005;entryY=0.029;entryDx=0;entryDy=0;entryPerimeter=0;" edge="1" parent="1" source="qr1zeOYBX0D0OLAc-7lU-14" target="rcgNsUgau14ufXCpL1kU-18">
          <mxGeometry x="-0.2637" y="21" relative="1" as="geometry">
            <mxPoint x="690" y="250" as="sourcePoint" />
            <mxPoint x="530" y="380" as="targetPoint" />
            <Array as="points">
              <mxPoint x="1005" y="370" />
            </Array>
            <mxPoint as="offset" />
          </mxGeometry>
        </mxCell>
      </root>
    </mxGraphModel>
  </diagram>
</mxfile>
